<svg xmlns="http://www.w3.org/2000/svg" viewBox="0 0 64 64" role="img" aria-label="DormFlow">
  <defs>
    <linearGradient id="bg" x1="8" y1="4" x2="56" y2="60" gradientUnits="userSpaceOnUse">
      <stop stop-color="#172744"/>
      <stop offset="1" stop-color="#07101f"/>
    </linearGradient>
    <linearGradient id="gold" x1="18" y1="13" x2="48" y2="52" gradientUnits="userSpaceOnUse">
      <stop stop-color="#fff0bd"/>
      <stop offset=".45" stop-color="#dcb45f"/>
      <stop offset="1" stop-color="#9b6d24"/>
    </linearGradient>
  </defs>
  <rect width="64" height="64" rx="16" fill="url(#bg)"/>
  <rect x="1" y="1" width="62" height="62" rx="15" fill="none" stroke="#f1d58e" stroke-opacity=".28"/>
  <path fill="url(#gold)" d="M15 51V18.5A3.5 3.5 0 0 1 18.5 15H31v7h14.5a3.5 3.5 0 0 1 3.5 3.5V51h-9V39H25v12H15Zm8-29v6h7v-6h-7Zm0 11v6h7v-6h-7Zm14-4v6h6v-6h-6Z"/>
  <path d="M12 51h40" fill="none" stroke="#fff3ce" stroke-linecap="round" stroke-opacity=".7" stroke-width="2"/>
</svg>
